<svg xmlns="http://www.w3.org/2000/svg" xmlns:xlink="http://www.w3.org/1999/xlink" width="500" zoomAndPan="magnify" viewBox="0 0 375 374.999991" height="500" preserveAspectRatio="xMidYMid meet" version="1.0"><defs><g/><clipPath id="bdc96bf2cb"><path d="M 60.347656 263.132812 L 314.613281 263.132812 L 314.613281 306.351562 L 60.347656 306.351562 Z M 60.347656 263.132812 " clip-rule="nonzero"/></clipPath><clipPath id="7e37067c76"><path d="M 77.765625 263.300781 L 297.234375 263.300781 C 301.808594 263.300781 306.195312 265.117188 309.429688 268.351562 C 312.667969 271.585938 314.484375 275.976562 314.484375 280.550781 L 314.484375 289.101562 C 314.484375 293.675781 312.667969 298.0625 309.429688 301.296875 C 306.195312 304.53125 301.808594 306.351562 297.234375 306.351562 L 77.765625 306.351562 C 73.191406 306.351562 68.804688 304.53125 65.570312 301.296875 C 62.332031 298.0625 60.515625 293.675781 60.515625 289.101562 L 60.515625 280.550781 C 60.515625 275.976562 62.332031 271.585938 65.570312 268.351562 C 68.804688 265.117188 73.191406 263.300781 77.765625 263.300781 Z M 77.765625 263.300781 " clip-rule="nonzero"/></clipPath></defs><g fill="#000000" fill-opacity="1"><g transform="translate(60.516116, 257.898579)"><g><path d="M 11.4375 0 L 11.4375 -164.734375 L 70.921875 -164.734375 L 70.921875 0 Z M 11.4375 0 "/></g></g></g><g fill="#000000" fill-opacity="1"><g transform="translate(142.882058, 257.898579)"><g><path d="M 11.4375 0 L 11.4375 -164.734375 L 99.0625 -164.734375 C 112.945312 -164.734375 124.957031 -162.289062 135.09375 -157.40625 C 145.238281 -152.53125 153.09375 -145.664062 158.65625 -136.8125 C 164.226562 -127.96875 167.015625 -117.445312 167.015625 -105.25 C 167.015625 -93.195312 164.191406 -82.707031 158.546875 -73.78125 C 152.910156 -64.863281 144.984375 -57.960938 134.765625 -53.078125 C 124.546875 -48.203125 112.414062 -45.765625 98.375 -45.765625 L 70.921875 -45.765625 L 70.703125 0 Z M 70.921875 -86.9375 L 86.9375 -86.9375 C 93.65625 -86.9375 98.765625 -88.535156 102.265625 -91.734375 C 105.773438 -94.941406 107.53125 -99.445312 107.53125 -105.25 C 107.53125 -111.039062 105.773438 -115.535156 102.265625 -118.734375 C 98.765625 -121.941406 93.65625 -123.546875 86.9375 -123.546875 L 70.703125 -123.546875 Z M 70.921875 -86.9375 "/></g></g></g><g clip-path="url(#bdc96bf2cb)"><g clip-path="url(#7e37067c76)"><path fill="#000000" d="M 60.515625 263.300781 L 314.445312 263.300781 L 314.445312 306.351562 L 60.515625 306.351562 Z M 60.515625 263.300781 " fill-opacity="1" fill-rule="nonzero"/></g></g></svg>